<svg xmlns="http://www.w3.org/2000/svg" version="1.1" xmlns:xlink="http://www.w3.org/1999/xlink" xmlns:svgjs="http://svgjs.dev/svgjs" width="2000" height="2032" viewBox="0 0 2000 2032"><g transform="matrix(1,0,0,1,0.9718172983477871,0.8226720647772936)"><svg viewBox="0 0 243 247" data-background-color="#ffffff" preserveAspectRatio="xMidYMid meet" height="2032" width="2000" xmlns="http://www.w3.org/2000/svg" xmlns:xlink="http://www.w3.org/1999/xlink"><g id="tight-bounds" transform="matrix(1,0,0,1,-0.11807580174925647,-0.09999999999999432)"><svg viewBox="0 0 243.2361516034985 247.2" height="247.2" width="243.2361516034985"><g><svg viewBox="0 0 243.2361516034985 247.2" height="247.2" width="243.2361516034985"><g><svg viewBox="0 0 243.2361516034985 247.2" height="247.2" width="243.2361516034985"><g id="textblocktransform"><svg viewBox="0 0 243.2361516034985 247.2" height="247.2" width="243.2361516034985" id="textblock"><g><svg viewBox="0 0 243.2361516034985 247.2" height="247.2" width="243.2361516034985"><g transform="matrix(1,0,0,1,0,0)"><svg width="243.2361516034985" viewBox="3.95 -34.3 33.75 34.3" height="247.2" data-palette-color="#ffffff"><g class="wordmark-text-0" data-fill-palette-color="primary" id="text-0"><path d="M3.95 0L3.95-34.3 11-34.3 19.2-10.9Q19.9-8.9 20.75-5.75L20.75-5.75 20.95-5.75Q21.85-9.25 22.45-10.9L22.45-10.9 30.7-34.3 37.7-34.3 37.7 0 32.95 0 32.95-22.65 33.05-29.05 32.7-29.05Q32.3-27 31.85-25.75L31.85-25.75 22.55 0 18.6 0 9.45-25.75Q9.05-26.8 8.6-29.05L8.6-29.05 8.3-29.05 8.4-22.65 8.4 0 3.95 0Z" fill="#ffffff" data-fill-palette-color="primary"></path></g></svg></g></svg></g></svg></g></svg></g></svg></g><defs></defs></svg><rect width="243.2361516034985" height="247.2" fill="none" stroke="none" visibility="hidden"></rect></g></svg></g></svg>